<mxfile host="app.diagrams.net" modified="2024-05-20T04:08:38.717Z" agent="Mozilla/5.0 (Macintosh; Intel Mac OS X 10_15_7) AppleWebKit/537.36 (KHTML, like Gecko) Chrome/124.0.0.0 Safari/537.36" etag="2RtJEEpGHPSy65NvVhgK" version="24.4.4" type="github">
  <diagram name="Page-1" id="-Ef7fVMwwg34oY_xVLL2">
    <mxGraphModel dx="1346" dy="282" grid="1" gridSize="10" guides="1" tooltips="1" connect="1" arrows="1" fold="1" page="1" pageScale="1" pageWidth="827" pageHeight="1169" math="0" shadow="0">
      <root>
        <mxCell id="0" />
        <mxCell id="1" parent="0" />
        <mxCell id="iS-BzEnSy-cz8t3YpHVA-1" value="EOA&lt;div&gt;&lt;font style=&quot;&quot;&gt;&lt;span style=&quot;background-color: rgba(250, 255, 10, 0.447); cursor: pointer;&quot; class=&quot;monica-mark monica-mark-ecf90c43-6ed8-4aec-8ac5-4817ee16226f&quot; data-id=&quot;ecf90c43-6ed8-4aec-8ac5-4817ee16226f&quot;&gt;&lt;font style=&quot;font-size: 6px;&quot;&gt;简单理解为用户钱包账户&lt;/font&gt;&lt;/span&gt;&lt;/font&gt;&lt;/div&gt;" style="shape=umlLifeline;perimeter=lifelinePerimeter;whiteSpace=wrap;html=1;container=1;dropTarget=0;collapsible=0;recursiveResize=0;outlineConnect=0;portConstraint=eastwest;newEdgeStyle={&quot;curved&quot;:0,&quot;rounded&quot;:0};" vertex="1" parent="1">
          <mxGeometry x="60" y="70" width="145" height="590" as="geometry" />
        </mxCell>
        <mxCell id="iS-BzEnSy-cz8t3YpHVA-5" value="" style="html=1;points=[[0,0,0,0,5],[0,1,0,0,-5],[1,0,0,0,5],[1,1,0,0,-5]];perimeter=orthogonalPerimeter;outlineConnect=0;targetShapes=umlLifeline;portConstraint=eastwest;newEdgeStyle={&quot;curved&quot;:0,&quot;rounded&quot;:0};" vertex="1" parent="iS-BzEnSy-cz8t3YpHVA-1">
          <mxGeometry x="67.5" y="90" width="10" height="100" as="geometry" />
        </mxCell>
        <mxCell id="iS-BzEnSy-cz8t3YpHVA-19" value="1.2&amp;nbsp;&lt;span style=&quot;font-size: 12px; text-align: center; background-color: rgb(251, 251, 251);&quot;&gt;EOA Sign signature&lt;/span&gt;" style="html=1;align=left;spacingLeft=2;endArrow=block;rounded=0;edgeStyle=orthogonalEdgeStyle;curved=0;rounded=0;" edge="1" parent="iS-BzEnSy-cz8t3YpHVA-1">
          <mxGeometry relative="1" as="geometry">
            <mxPoint x="77.5" y="120" as="sourcePoint" />
            <Array as="points">
              <mxPoint x="100" y="120" />
              <mxPoint x="100" y="140" />
            </Array>
            <mxPoint x="77.5" y="140" as="targetPoint" />
          </mxGeometry>
        </mxCell>
        <mxCell id="iS-BzEnSy-cz8t3YpHVA-2" value="Relay account&lt;div&gt;&lt;font style=&quot;font-size: 8px;&quot;&gt;realy执行账户&lt;/font&gt;&lt;/div&gt;" style="shape=umlLifeline;perimeter=lifelinePerimeter;whiteSpace=wrap;html=1;container=1;dropTarget=0;collapsible=0;recursiveResize=0;outlineConnect=0;portConstraint=eastwest;newEdgeStyle={&quot;curved&quot;:0,&quot;rounded&quot;:0};" vertex="1" parent="1">
          <mxGeometry x="268" y="70" width="100" height="600" as="geometry" />
        </mxCell>
        <mxCell id="iS-BzEnSy-cz8t3YpHVA-18" value="" style="html=1;points=[[0,0,0,0,5],[0,1,0,0,-5],[1,0,0,0,5],[1,1,0,0,-5]];perimeter=orthogonalPerimeter;outlineConnect=0;targetShapes=umlLifeline;portConstraint=eastwest;newEdgeStyle={&quot;curved&quot;:0,&quot;rounded&quot;:0};" vertex="1" parent="iS-BzEnSy-cz8t3YpHVA-2">
          <mxGeometry x="45" y="172" width="10" height="48" as="geometry" />
        </mxCell>
        <mxCell id="iS-BzEnSy-cz8t3YpHVA-28" value="" style="html=1;points=[[0,0,0,0,5],[0,1,0,0,-5],[1,0,0,0,5],[1,1,0,0,-5]];perimeter=orthogonalPerimeter;outlineConnect=0;targetShapes=umlLifeline;portConstraint=eastwest;newEdgeStyle={&quot;curved&quot;:0,&quot;rounded&quot;:0};" vertex="1" parent="iS-BzEnSy-cz8t3YpHVA-2">
          <mxGeometry x="45" y="340" width="10" height="200" as="geometry" />
        </mxCell>
        <mxCell id="iS-BzEnSy-cz8t3YpHVA-3" value="Relay contract" style="shape=umlLifeline;perimeter=lifelinePerimeter;whiteSpace=wrap;html=1;container=1;dropTarget=0;collapsible=0;recursiveResize=0;outlineConnect=0;portConstraint=eastwest;newEdgeStyle={&quot;curved&quot;:0,&quot;rounded&quot;:0};" vertex="1" parent="1">
          <mxGeometry x="640" y="70" width="100" height="590" as="geometry" />
        </mxCell>
        <mxCell id="iS-BzEnSy-cz8t3YpHVA-31" value="" style="html=1;points=[[0,0,0,0,5],[0,1,0,0,-5],[1,0,0,0,5],[1,1,0,0,-5]];perimeter=orthogonalPerimeter;outlineConnect=0;targetShapes=umlLifeline;portConstraint=eastwest;newEdgeStyle={&quot;curved&quot;:0,&quot;rounded&quot;:0};" vertex="1" parent="iS-BzEnSy-cz8t3YpHVA-3">
          <mxGeometry x="45" y="360" width="10" height="150" as="geometry" />
        </mxCell>
        <mxCell id="iS-BzEnSy-cz8t3YpHVA-4" value="wool contract" style="shape=umlLifeline;perimeter=lifelinePerimeter;whiteSpace=wrap;html=1;container=1;dropTarget=0;collapsible=0;recursiveResize=0;outlineConnect=0;portConstraint=eastwest;newEdgeStyle={&quot;curved&quot;:0,&quot;rounded&quot;:0};" vertex="1" parent="1">
          <mxGeometry x="470" y="70" width="100" height="590" as="geometry" />
        </mxCell>
        <mxCell id="iS-BzEnSy-cz8t3YpHVA-8" value="" style="html=1;points=[[0,0,0,0,5],[0,1,0,0,-5],[1,0,0,0,5],[1,1,0,0,-5]];perimeter=orthogonalPerimeter;outlineConnect=0;targetShapes=umlLifeline;portConstraint=eastwest;newEdgeStyle={&quot;curved&quot;:0,&quot;rounded&quot;:0};" vertex="1" parent="iS-BzEnSy-cz8t3YpHVA-4">
          <mxGeometry x="45" y="190" width="10" height="60" as="geometry" />
        </mxCell>
        <mxCell id="iS-BzEnSy-cz8t3YpHVA-34" value="" style="html=1;points=[[0,0,0,0,5],[0,1,0,0,-5],[1,0,0,0,5],[1,1,0,0,-5]];perimeter=orthogonalPerimeter;outlineConnect=0;targetShapes=umlLifeline;portConstraint=eastwest;newEdgeStyle={&quot;curved&quot;:0,&quot;rounded&quot;:0};" vertex="1" parent="iS-BzEnSy-cz8t3YpHVA-4">
          <mxGeometry x="45" y="410" width="10" height="70" as="geometry" />
        </mxCell>
        <mxCell id="iS-BzEnSy-cz8t3YpHVA-13" value="WEB Page" style="shape=umlLifeline;perimeter=lifelinePerimeter;whiteSpace=wrap;html=1;container=1;dropTarget=0;collapsible=0;recursiveResize=0;outlineConnect=0;portConstraint=eastwest;newEdgeStyle={&quot;curved&quot;:0,&quot;rounded&quot;:0};" vertex="1" parent="1">
          <mxGeometry x="-120" y="70" width="145" height="590" as="geometry" />
        </mxCell>
        <mxCell id="iS-BzEnSy-cz8t3YpHVA-14" value="" style="html=1;points=[[0,0,0,0,5],[0,1,0,0,-5],[1,0,0,0,5],[1,1,0,0,-5]];perimeter=orthogonalPerimeter;outlineConnect=0;targetShapes=umlLifeline;portConstraint=eastwest;newEdgeStyle={&quot;curved&quot;:0,&quot;rounded&quot;:0};" vertex="1" parent="iS-BzEnSy-cz8t3YpHVA-13">
          <mxGeometry x="67.5" y="80" width="10" height="190" as="geometry" />
        </mxCell>
        <mxCell id="iS-BzEnSy-cz8t3YpHVA-27" value="" style="html=1;points=[[0,0,0,0,5],[0,1,0,0,-5],[1,0,0,0,5],[1,1,0,0,-5]];perimeter=orthogonalPerimeter;outlineConnect=0;targetShapes=umlLifeline;portConstraint=eastwest;newEdgeStyle={&quot;curved&quot;:0,&quot;rounded&quot;:0};" vertex="1" parent="iS-BzEnSy-cz8t3YpHVA-13">
          <mxGeometry x="68" y="330" width="10" height="240" as="geometry" />
        </mxCell>
        <mxCell id="iS-BzEnSy-cz8t3YpHVA-15" style="edgeStyle=orthogonalEdgeStyle;rounded=0;orthogonalLoop=1;jettySize=auto;html=1;curved=0;" edge="1" parent="1" target="iS-BzEnSy-cz8t3YpHVA-5">
          <mxGeometry relative="1" as="geometry">
            <mxPoint x="-42.5" y="170" as="sourcePoint" />
            <mxPoint x="120" y="170" as="targetPoint" />
            <Array as="points">
              <mxPoint x="-43" y="171" />
            </Array>
          </mxGeometry>
        </mxCell>
        <mxCell id="iS-BzEnSy-cz8t3YpHVA-16" value="1.1 /requet approve erc20" style="edgeLabel;html=1;align=center;verticalAlign=middle;resizable=0;points=[];" vertex="1" connectable="0" parent="iS-BzEnSy-cz8t3YpHVA-15">
          <mxGeometry x="-0.8467" y="3" relative="1" as="geometry">
            <mxPoint x="53" y="-7" as="offset" />
          </mxGeometry>
        </mxCell>
        <mxCell id="iS-BzEnSy-cz8t3YpHVA-20" style="edgeStyle=orthogonalEdgeStyle;rounded=0;orthogonalLoop=1;jettySize=auto;html=1;curved=0;" edge="1" parent="1" source="iS-BzEnSy-cz8t3YpHVA-5" target="iS-BzEnSy-cz8t3YpHVA-18">
          <mxGeometry relative="1" as="geometry">
            <Array as="points">
              <mxPoint x="190" y="250" />
              <mxPoint x="190" y="250" />
            </Array>
          </mxGeometry>
        </mxCell>
        <mxCell id="iS-BzEnSy-cz8t3YpHVA-21" value="1.3 return&amp;nbsp; siganature" style="text;html=1;align=center;verticalAlign=middle;resizable=0;points=[];autosize=1;strokeColor=none;fillColor=none;" vertex="1" parent="1">
          <mxGeometry x="128" y="225" width="140" height="30" as="geometry" />
        </mxCell>
        <mxCell id="iS-BzEnSy-cz8t3YpHVA-22" style="edgeStyle=orthogonalEdgeStyle;rounded=0;orthogonalLoop=1;jettySize=auto;html=1;curved=0;" edge="1" parent="1" source="iS-BzEnSy-cz8t3YpHVA-18" target="iS-BzEnSy-cz8t3YpHVA-8">
          <mxGeometry relative="1" as="geometry">
            <Array as="points">
              <mxPoint x="420" y="266" />
              <mxPoint x="420" y="266" />
            </Array>
          </mxGeometry>
        </mxCell>
        <mxCell id="iS-BzEnSy-cz8t3YpHVA-23" value="1.4 approveErc20Permit(&lt;div&gt;&lt;div&gt;siganture, relay contract)&lt;/div&gt;&lt;/div&gt;" style="edgeLabel;html=1;align=center;verticalAlign=middle;resizable=0;points=[];" vertex="1" connectable="0" parent="iS-BzEnSy-cz8t3YpHVA-22">
          <mxGeometry x="-0.7983" y="2" relative="1" as="geometry">
            <mxPoint x="68" y="-19" as="offset" />
          </mxGeometry>
        </mxCell>
        <mxCell id="iS-BzEnSy-cz8t3YpHVA-24" style="edgeStyle=orthogonalEdgeStyle;rounded=0;orthogonalLoop=1;jettySize=auto;html=1;curved=0;" edge="1" parent="1" source="iS-BzEnSy-cz8t3YpHVA-8" target="iS-BzEnSy-cz8t3YpHVA-14">
          <mxGeometry relative="1" as="geometry">
            <mxPoint x="30" y="332.5806451612903" as="targetPoint" />
            <Array as="points">
              <mxPoint x="380" y="310" />
              <mxPoint x="380" y="310" />
            </Array>
          </mxGeometry>
        </mxCell>
        <mxCell id="iS-BzEnSy-cz8t3YpHVA-25" value="1.5 approve erc20 sucessfully" style="edgeLabel;html=1;align=center;verticalAlign=middle;resizable=0;points=[];" vertex="1" connectable="0" parent="iS-BzEnSy-cz8t3YpHVA-24">
          <mxGeometry x="-0.6145" y="-3" relative="1" as="geometry">
            <mxPoint x="28" y="-9" as="offset" />
          </mxGeometry>
        </mxCell>
        <mxCell id="iS-BzEnSy-cz8t3YpHVA-29" style="edgeStyle=orthogonalEdgeStyle;rounded=0;orthogonalLoop=1;jettySize=auto;html=1;curved=0;" edge="1" parent="1" source="iS-BzEnSy-cz8t3YpHVA-27" target="iS-BzEnSy-cz8t3YpHVA-28">
          <mxGeometry relative="1" as="geometry">
            <Array as="points">
              <mxPoint x="230" y="420" />
              <mxPoint x="230" y="420" />
            </Array>
          </mxGeometry>
        </mxCell>
        <mxCell id="iS-BzEnSy-cz8t3YpHVA-30" value="2.1 /mintbox" style="edgeLabel;html=1;align=center;verticalAlign=middle;resizable=0;points=[];" vertex="1" connectable="0" parent="iS-BzEnSy-cz8t3YpHVA-29">
          <mxGeometry x="-0.8735" y="2" relative="1" as="geometry">
            <mxPoint x="19" y="-8" as="offset" />
          </mxGeometry>
        </mxCell>
        <mxCell id="iS-BzEnSy-cz8t3YpHVA-32" style="edgeStyle=orthogonalEdgeStyle;rounded=0;orthogonalLoop=1;jettySize=auto;html=1;curved=0;" edge="1" parent="1" source="iS-BzEnSy-cz8t3YpHVA-28" target="iS-BzEnSy-cz8t3YpHVA-31">
          <mxGeometry relative="1" as="geometry">
            <Array as="points">
              <mxPoint x="590" y="445" />
              <mxPoint x="590" y="445" />
            </Array>
          </mxGeometry>
        </mxCell>
        <mxCell id="iS-BzEnSy-cz8t3YpHVA-33" value="2.2 call relay contract .transferFrom(EOA, EOA, AMOUNT)" style="edgeLabel;html=1;align=center;verticalAlign=middle;resizable=0;points=[];" vertex="1" connectable="0" parent="iS-BzEnSy-cz8t3YpHVA-32">
          <mxGeometry x="-0.9168" relative="1" as="geometry">
            <mxPoint x="133" y="-12" as="offset" />
          </mxGeometry>
        </mxCell>
        <mxCell id="iS-BzEnSy-cz8t3YpHVA-35" style="edgeStyle=orthogonalEdgeStyle;rounded=0;orthogonalLoop=1;jettySize=auto;html=1;curved=0;" edge="1" parent="1" source="iS-BzEnSy-cz8t3YpHVA-31" target="iS-BzEnSy-cz8t3YpHVA-34">
          <mxGeometry relative="1" as="geometry">
            <Array as="points">
              <mxPoint x="560" y="490" />
              <mxPoint x="560" y="490" />
            </Array>
          </mxGeometry>
        </mxCell>
        <mxCell id="iS-BzEnSy-cz8t3YpHVA-36" value="2.3 call&amp;nbsp;&lt;div&gt;wool contract. tranferFrom(&lt;/div&gt;&lt;div&gt;EOA,&lt;span style=&quot;font-size: 11px; background-color: rgb(255, 255, 255);&quot;&gt;EOA, AMOUNT&lt;/span&gt;)&lt;/div&gt;" style="text;html=1;align=center;verticalAlign=middle;resizable=0;points=[];autosize=1;strokeColor=none;fillColor=none;" vertex="1" parent="1">
          <mxGeometry x="520" y="453" width="170" height="60" as="geometry" />
        </mxCell>
        <mxCell id="iS-BzEnSy-cz8t3YpHVA-37" style="edgeStyle=orthogonalEdgeStyle;rounded=0;orthogonalLoop=1;jettySize=auto;html=1;curved=0;" edge="1" parent="1" source="iS-BzEnSy-cz8t3YpHVA-34" target="iS-BzEnSy-cz8t3YpHVA-31">
          <mxGeometry relative="1" as="geometry">
            <Array as="points">
              <mxPoint x="640" y="540" />
              <mxPoint x="640" y="540" />
            </Array>
          </mxGeometry>
        </mxCell>
        <mxCell id="iS-BzEnSy-cz8t3YpHVA-38" value="2.4 call successfully" style="edgeLabel;html=1;align=center;verticalAlign=middle;resizable=0;points=[];" vertex="1" connectable="0" parent="iS-BzEnSy-cz8t3YpHVA-37">
          <mxGeometry x="-0.8633" y="3" relative="1" as="geometry">
            <mxPoint x="41" y="-7" as="offset" />
          </mxGeometry>
        </mxCell>
        <mxCell id="iS-BzEnSy-cz8t3YpHVA-39" style="edgeStyle=orthogonalEdgeStyle;rounded=0;orthogonalLoop=1;jettySize=auto;html=1;curved=0;" edge="1" parent="1" source="iS-BzEnSy-cz8t3YpHVA-31" target="iS-BzEnSy-cz8t3YpHVA-28">
          <mxGeometry relative="1" as="geometry">
            <Array as="points">
              <mxPoint x="600" y="570" />
              <mxPoint x="600" y="570" />
            </Array>
          </mxGeometry>
        </mxCell>
        <mxCell id="iS-BzEnSy-cz8t3YpHVA-40" value="2.5 call successfully" style="edgeLabel;html=1;align=center;verticalAlign=middle;resizable=0;points=[];" vertex="1" connectable="0" parent="1">
          <mxGeometry x="629.9977419354841" y="559.9999999999999" as="geometry" />
        </mxCell>
        <mxCell id="iS-BzEnSy-cz8t3YpHVA-41" style="edgeStyle=orthogonalEdgeStyle;rounded=0;orthogonalLoop=1;jettySize=auto;html=1;curved=0;" edge="1" parent="1" source="iS-BzEnSy-cz8t3YpHVA-28" target="iS-BzEnSy-cz8t3YpHVA-27">
          <mxGeometry relative="1" as="geometry">
            <Array as="points">
              <mxPoint x="50" y="600" />
              <mxPoint x="50" y="600" />
            </Array>
          </mxGeometry>
        </mxCell>
        <mxCell id="iS-BzEnSy-cz8t3YpHVA-42" value="2.6 transcation excuted successfuly" style="edgeLabel;html=1;align=center;verticalAlign=middle;resizable=0;points=[];" vertex="1" connectable="0" parent="iS-BzEnSy-cz8t3YpHVA-41">
          <mxGeometry x="-0.2096" y="-2" relative="1" as="geometry">
            <mxPoint x="47" y="-10" as="offset" />
          </mxGeometry>
        </mxCell>
      </root>
    </mxGraphModel>
  </diagram>
</mxfile>
